<?xml version="1.0" standalone="no"?>
<!DOCTYPE svg PUBLIC "-//W3C//DTD SVG 20010904//EN"
 "http://www.w3.org/TR/2001/REC-SVG-20010904/DTD/svg10.dtd">
<svg version="1.0" xmlns="http://www.w3.org/2000/svg"
 width="990.000000pt" height="206.000000pt" viewBox="0 0 990.000000 206.000000"
 preserveAspectRatio="xMidYMid meet">

<g transform="translate(0.000000,206.000000) scale(0.100000,-0.100000)"
fill="#000000" stroke="none">
<path d="M779 1685 c-140 -28 -297 -123 -386 -234 -89 -111 -153 -288 -153
-425 0 -140 62 -314 153 -427 118 -147 332 -249 521 -249 192 0 404 100 523
249 89 111 153 288 153 425 0 139 -56 301 -145 417 -151 196 -418 293 -666
244z m296 -190 c109 -31 192 -110 215 -205 17 -72 8 -80 -96 -80 l-84 0 -25
41 c-30 47 -74 69 -140 69 -101 0 -155 -52 -155 -150 l0 -56 -102 -47 c-57
-26 -107 -47 -112 -47 -4 0 -7 60 -4 133 3 126 5 135 34 187 81 144 276 208
469 155z m185 -362 c31 -39 25 -137 -9 -164 -46 -38 -140 -12 -141 39 0 17 38
15 56 -3 19 -19 29 -19 48 1 18 18 21 66 6 95 -13 23 -48 25 -56 4 -4 -8 -17
-15 -30 -15 -30 0 -31 23 -4 50 14 14 33 20 64 20 37 0 48 -5 66 -27z m-468
-193 c3 -96 4 -101 34 -131 70 -70 231 -52 250 29 15 64 27 72 114 72 98 0
115 -12 106 -77 -23 -170 -224 -290 -426 -255 -177 30 -284 136 -297 293 l-6
69 104 49 c57 28 107 50 111 50 3 1 8 -44 10 -99z"/>
<path d="M2109 1477 c-170 -58 -259 -207 -259 -434 0 -198 76 -340 218 -410
52 -26 66 -28 172 -28 97 0 122 3 162 22 94 43 183 154 203 251 l7 32 -89 0
-89 0 -13 -36 c-51 -140 -226 -167 -328 -51 -39 45 -52 88 -60 192 -10 140 34
256 114 306 29 18 52 24 98 23 86 0 136 -29 167 -93 l23 -50 89 -1 89 0 -6 36
c-14 83 -86 177 -167 219 -97 49 -226 58 -331 22z"/>
<path d="M5869 1487 c-133 -38 -235 -149 -270 -294 -18 -75 -15 -238 5 -308
38 -128 99 -204 205 -254 50 -23 68 -26 171 -26 100 0 121 3 161 23 96 48 177
145 197 240 l10 42 -88 0 -88 0 -12 -32 c-46 -116 -158 -158 -274 -103 -43 21
-90 86 -107 150 -18 67 -7 231 20 293 42 93 122 141 217 126 61 -9 104 -40
134 -97 l25 -47 89 0 89 0 -7 32 c-20 100 -108 202 -203 238 -72 27 -209 35
-274 17z"/>
<path d="M3477 1483 c-4 -3 -7 -37 -7 -75 l0 -68 85 0 85 0 0 75 0 75 -78 0
c-43 0 -82 -3 -85 -7z"/>
<path d="M2740 1050 l0 -430 85 0 85 0 0 205 c0 223 7 259 53 290 58 38 139
25 169 -28 9 -15 14 -87 16 -244 l4 -223 79 0 79 0 0 252 c0 233 -2 255 -20
294 -31 64 -87 98 -170 102 -81 5 -129 -9 -176 -50 l-34 -30 0 146 0 146 -85
0 -85 0 0 -430z"/>
<path d="M6480 1050 l0 -430 80 0 80 0 0 194 c0 118 4 206 11 227 25 74 91
111 160 90 65 -20 69 -37 69 -291 l0 -220 85 0 85 0 0 238 c0 132 -5 253 -10
274 -24 86 -102 137 -208 138 -75 0 -122 -18 -162 -62 l-30 -32 0 152 0 152
-80 0 -80 0 0 -430z"/>
<path d="M4062 1255 c-18 -8 -48 -31 -67 -52 l-35 -38 0 48 0 48 -77 -3 -78
-3 -3 -317 -2 -318 85 0 85 0 0 210 c0 232 8 272 55 290 38 15 87 12 112 -5
35 -25 43 -77 43 -292 l0 -203 80 0 80 0 0 198 c0 108 5 214 10 234 21 75 109
104 167 54 l28 -24 3 -231 3 -231 85 0 85 0 -3 253 c-3 283 -8 303 -79 359
-73 59 -207 48 -277 -23 l-38 -38 -28 36 c-16 19 -44 41 -62 49 -43 18 -129
17 -172 -1z"/>
<path d="M5125 1251 c-23 -10 -53 -33 -68 -50 l-27 -33 0 46 0 46 -80 0 -80 0
0 -445 0 -445 80 0 80 0 0 168 1 167 20 -27 c38 -51 86 -72 164 -72 85 0 135
23 192 88 51 58 74 136 74 252 0 122 -22 186 -86 249 -74 75 -181 97 -270 56z
m121 -146 c61 -40 85 -192 44 -282 -48 -107 -188 -108 -242 -2 -27 52 -25 172
5 229 38 76 124 100 193 55z"/>
<path d="M7350 1261 c-94 -31 -160 -107 -160 -186 0 -25 1 -25 80 -25 72 0 80
2 80 19 0 37 33 63 88 69 88 8 136 -28 117 -87 -7 -24 -43 -36 -150 -51 -165
-24 -227 -75 -233 -192 -5 -81 8 -117 54 -158 81 -71 212 -63 309 18 16 13 30
20 31 16 1 -5 5 -21 8 -36 l6 -28 90 0 c92 0 105 6 75 36 -12 13 -15 52 -15
222 -1 282 -10 314 -106 362 -41 21 -66 25 -149 27 -55 1 -111 -1 -125 -6z
m196 -465 c-17 -41 -78 -75 -134 -76 -42 0 -82 38 -82 78 0 52 32 79 118 98
42 9 84 20 92 25 22 11 26 -78 6 -125z"/>
<path d="M8131 1253 c-19 -10 -48 -37 -65 -61 l-31 -44 -3 56 -3 57 -77 -3
-77 -3 -3 -317 -2 -318 85 0 85 0 0 179 c0 184 7 229 43 268 21 24 101 45 135
36 21 -5 22 -3 22 81 l0 86 -37 0 c-21 0 -53 -8 -72 -17z"/>
<path d="M8485 1258 c-47 -17 -82 -46 -116 -95 -43 -62 -60 -123 -61 -218 -1
-119 21 -184 85 -250 57 -58 97 -75 184 -75 67 0 99 13 146 58 36 35 37 35 37
12 0 -66 -21 -145 -43 -168 -49 -49 -161 -48 -204 2 -20 24 -28 26 -108 26
-95 0 -96 -1 -66 -65 22 -49 43 -68 106 -97 43 -20 66 -23 165 -23 98 0 122 4
166 23 61 27 96 62 121 117 16 36 18 79 21 398 l3 357 -80 0 -81 0 0 -45 0
-46 -32 37 c-18 20 -47 43 -65 50 -38 16 -135 17 -178 2z m195 -146 c92 -50
107 -237 25 -319 -28 -28 -40 -33 -79 -33 -99 0 -146 58 -146 179 0 77 11 114
43 150 42 44 100 53 157 23z"/>
<path d="M9217 1256 c-88 -33 -157 -116 -178 -214 -19 -93 -8 -218 25 -286 44
-90 126 -142 240 -153 121 -11 226 34 284 122 51 77 47 85 -48 85 -79 0 -81
-1 -111 -34 -38 -44 -88 -54 -147 -31 -46 19 -72 53 -82 107 l-7 38 220 0 220
0 -5 83 c-8 129 -61 222 -152 269 -52 28 -201 36 -259 14z m168 -130 c38 -16
62 -47 71 -94 l7 -32 -132 0 c-147 0 -147 0 -111 70 33 65 94 85 165 56z"/>
<path d="M3477 1253 c-4 -3 -7 -147 -7 -320 l0 -313 85 0 85 0 0 320 0 320
-78 0 c-43 0 -82 -3 -85 -7z"/>
</g>
</svg>
